<?xml version="1.0" encoding="UTF-8"?>
<svg xmlns="http://www.w3.org/2000/svg">

  <!-- CARRITO -->
  <symbol id="icon-cart" viewBox="0 0 24 24">
    <path fill="currentColor"
      d="M7 18c-1.1 0-2 .9-2 2s.9 2 2 2
         2-.9 2-2-.9-2-2-2zm10 0c-1.1
         0-2 .9-2 2s.9 2 2 2 2-.9
         2-2-.9-2-2-2zM7.2 14h9.45
         c.75 0 1.41-.41 1.75-1.03
         l3.58-6.49-1.75-.97L16.7
         11H8.53L4.27 4H1v2h2
         l3.6 7.59-1.35 2.44
         C4.52 16.37 5.48 18
         7 18h12v-2H7l1.1-2z" />
  </symbol>

  <!-- GALERÍA -->
  <symbol id="icon-gallery" viewBox="0 0 24 24">
    <path fill="currentColor"
      d="M21 19V5c0-1.1-.9-2-2-2H5
         c-1.1 0-2 .9-2 2v14c0
         1.1.9 2 2 2h14c1.1
         0 2-.9 2-2zM8.5 13.5
         l2.5 3 3.5-4.5 4.5 6
         H5l3.5-4.5z" />
  </symbol>

  <!-- CURSOS -->
  <symbol id="icon-course" viewBox="0 0 24 24">
    <path fill="currentColor"
      d="M12 3L1 9l11 6 9-4.91V17h2V9L12 3z" />
  </symbol>

  <!-- DESTINOS -->
  <symbol id="icon-destination" viewBox="0 0 24 24">
    <path fill="currentColor"
      d="M12 2C8.13 2 5 5.13 5 9
         c0 5.25 7 13 7 13s7-7.75
         7-13c0-3.87-3.13-7-7-7zm0
         9.5c-1.38 0-2.5-1.12-2.5-2.5
         s1.12-2.5 2.5-2.5 2.5
         1.12 2.5 2.5-1.12 2.5-2.5 2.5z" />
  </symbol>

  <!-- CONTACTO -->
  <symbol id="icon-contact" viewBox="0 0 24 24">
    <path fill="currentColor"
      d="M21 8V7l-3 2-2-1-3 2-2-1-3 2-2-1-3 2v9
         h20V8z" />
  </symbol>

  <!-- INFO / ABOUT -->
  <symbol id="icon-info" viewBox="0 0 24 24">
    <path fill="currentColor"
      d="M11 17h2v-6h-2v6zm0-8h2V7h-2v2zm1-7
         C6.48 2 2 6.48 2 12s4.48
         10 10 10 10-4.48 10-10S17.52
         2 12 2z" />
  </symbol>

  <!-- FAQ -->
  <symbol id="icon-faq" viewBox="0 0 24 24">
    <path fill="currentColor"
      d="M12 2C6.48 2 2 6.48 2 12s4.48
         10 10 10 10-4.48 10-10S17.52
         2 12 2zm1 17h-2v-2h2v2zm2.07-7.75-.9.92
         C13.45 12.9 13 13.5 13 15h-2v-.5
         c0-.83.45-1.58 1.17-2.17l1.24-1.26
         c.37-.36.59-.86.59-1.41
         0-1.1-.9-2-2-2s-2
         .9-2 2H8c0-2.21 1.79-4
         4-4s4 1.79 4 4c0
         .88-.36 1.68-.93 2.25z" />
  </symbol>

  <!-- MENÚ -->
  <symbol id="icon-menu" viewBox="0 0 24 24">
    <path fill="currentColor"
      d="M3 6h18v2H3V6zm0 5h18v2H3v-2zm0
         5h18v2H3v-2z" />
  </symbol>

  <!-- CERRAR -->
  <symbol id="icon-close" viewBox="0 0 24 24">
    <path fill="currentColor"
      d="M18.3 5.71L12 12l6.3 6.29-1.41
         1.42L12 13.41l-6.29 6.3-1.42-1.42
         L10.59 12 4.29 5.71 5.71 4.29
         12 10.59l6.29-6.3z" />
  </symbol>
  <!-- WHATSAPP -->
  <symbol id="icon-whatsapp" viewBox="0 0 32 32">
    <path
      fill="currentColor"
      d="M19.11 17.42c-.27-.14-1.6-.79-1.85-.88-.25-.09-.43-.14-.61.14-.18.27-.7.88-.86 1.06-.16.18-.32.2-.59.07-.27-.14-1.14-.42-2.17-1.34-.8-.71-1.34-1.59-1.5-1.86-.16-.27-.02-.42.12-.56.12-.12.27-.32.41-.48.14-.16.18-.27.27-.45.09-.18.05-.34-.02-.48-.07-.14-.61-1.48-.84-2.03-.22-.53-.44-.46-.61-.47l-.52-.01c-.18 0-.48.07-.73.34-.25.27-.96.94-.96 2.29s.98 2.66 1.12 2.84c.14.18 1.93 2.95 4.68 4.13.65.28 1.16.45 1.56.58.65.21 1.24.18 1.7.11.52-.08 1.6-.65 1.82-1.28.23-.63.23-1.17.16-1.28-.07-.11-.25-.18-.52-.32zM16.04 3C9.39 3 4 8.39 4 15.04c0 2.65.69 5.11 1.89 7.24L4 29l6.96-1.83c2.04 1.12 4.38 1.76 6.98 1.76 6.65 0 12.04-5.39 12.04-12.04C29.98 8.39 22.69 3 16.04 3zm0 22.07c-2.36 0-4.56-.69-6.41-1.87l-.46-.28-4.13 1.08 1.1-4.02-.3-.48c-1.12-1.8-1.76-3.92-1.76-6.18 0-6.2 5.04-11.24 11.24-11.24S27.28 7.12 27.28 13.32 22.24 25.07 16.04 25.07z"
    />
  </symbol>


</svg>